<svg xmlns="http://www.w3.org/2000/svg" viewBox="0 0 640 900" role="img" aria-label="Story NPC concept placeholder">
  <rect width="640" height="900" fill="#151821"/>
  <rect x="72" y="58" width="496" height="784" rx="28" fill="#202532" stroke="#3d465b" stroke-width="4"/>
  <circle cx="320" cy="258" r="112" fill="#d7c1ff"/>
  <path d="M214 258c20-94 72-142 156-142 63 18 100 68 112 150-38-42-86-64-143-66-55-2-97 17-125 58z" fill="#564279"/>
  <path d="M192 666c24-164 67-244 128-244s104 80 128 244H192z" fill="#6d8bff"/>
  <path d="M238 626h164l-18 74H256l-18-74z" fill="#f2d98f"/>
  <circle cx="282" cy="268" r="16" fill="#202532"/>
  <circle cx="358" cy="268" r="16" fill="#202532"/>
  <path d="M285 326c23 18 47 18 70 0" fill="none" stroke="#202532" stroke-width="10" stroke-linecap="round"/>
  <path d="M170 760h300" stroke="#3d465b" stroke-width="4" stroke-linecap="round"/>
  <text x="320" y="804" text-anchor="middle" fill="#dfe6ff" font-family="Inter, Arial, sans-serif" font-size="28" font-weight="700">NPC MODEL BRIEF</text>
</svg>
